<?xml version="1.0" standalone="no"?>
<!DOCTYPE svg PUBLIC "-//W3C//DTD SVG 20010904//EN"
 "http://www.w3.org/TR/2001/REC-SVG-20010904/DTD/svg10.dtd">
<svg version="1.0" xmlns="http://www.w3.org/2000/svg"
 width="1800.000000pt" height="1800.000000pt" viewBox="0 0 1800.000000 1800.000000"
 preserveAspectRatio="xMidYMid meet">
<metadata>
Created by potrace 1.11, written by Peter Selinger 2001-2013
</metadata>
<g transform="translate(0.000000,1800.000000) scale(0.100000,-0.100000)"
fill="#000000" stroke="none">
<path d="M0 9000 l0 -9000 9000 0 9000 0 0 9000 0 9000 -9000 0 -9000 0 0
-9000z m8940 2311 c866 -1062 1578 -1930 1583 -1930 4 -1 7 438 7 974 l0 975
-347 2 -348 3 -3 953 -2 952 2280 0 2280 0 0 -955 0 -955 -345 0 -345 0 0
-2325 0 -2325 345 0 345 0 0 -960 0 -960 -1912 0 -1913 0 -1530 1867 c-841
1027 -1540 1878 -1552 1892 l-22 26 -1 -932 0 -933 360 0 360 0 0 -960 0 -960
-2285 0 -2285 0 0 960 0 960 345 0 345 0 0 2325 0 2325 -345 0 -345 0 0 955 0
955 1878 0 1877 0 1575 -1929z"/>
<path d="M4250 12295 l0 -485 345 0 345 0 0 -2805 0 -2805 -345 0 -345 0 0
-485 0 -485 1645 0 1645 0 0 485 0 485 -355 0 -355 0 0 2071 c0 1138 3 2068 8
2065 4 -2 945 -1152 2092 -2555 l2085 -2550 1368 -1 1367 0 0 485 0 485 -345
0 -345 0 0 2805 0 2805 345 0 345 0 0 485 0 485 -1635 0 -1635 0 0 -485 0
-485 343 -2 342 -3 3 -2125 c2 -2115 2 -2124 -18 -2105 -11 11 -970 1186
-2133 2610 l-2113 2590 -1327 3 -1327 2 0 -485z"/>
</g>
</svg>
